<svg width="77" height="76" viewBox="0 0 77 76" fill="none" xmlns="http://www.w3.org/2000/svg">
<path d="M38.7329 0.5C29.0954 0.5 19.8187 4.16586 12.7847 10.754C5.75065 17.3421 1.48592 26.3591 0.855591 35.9759C0.225273 45.5928 3.27657 55.0893 9.39052 62.5392C15.5045 69.9891 24.2233 74.8344 33.7783 76.0923C43.3333 77.3503 53.0091 74.9266 60.8429 69.313C68.6767 63.6994 74.0819 55.3162 75.962 45.8639C77.8422 36.4116 76.0566 26.598 70.9673 18.4138C65.8781 10.2297 57.8663 4.28776 48.5572 1.7934L43.8897 19.213C48.776 20.5223 52.9814 23.6412 55.6528 27.9371C58.3241 32.2329 59.2614 37.3841 58.2745 42.3456C57.2876 47.3071 54.4504 51.7075 50.3384 54.6541C46.2265 57.6007 41.1476 58.8729 36.1322 58.2126C31.1168 57.5523 26.5403 55.0089 23.331 51.0985C20.1218 47.1881 18.5202 42.2033 18.851 37.1554C19.1819 32.1075 21.4205 27.3745 25.1126 23.9164C28.8048 20.4583 33.6741 18.5341 38.7329 18.5341V0.5Z" fill="#C9C9C9"/>
</svg>
