<svg width="74" height="57" viewBox="0 0 74 57" fill="none" xmlns="http://www.w3.org/2000/svg">
<path opacity="0.4" d="M59.9666 71.8261L50.9412 25.0092C50.2354 21.3478 54.4236 19.5376 57.3639 22.2332L79.2097 42.2612C80.971 43.876 83.5026 43.9811 84.8641 42.4961L94.202 32.3106C96.3233 29.9968 100.69 31.73 101.349 35.1473L110.374 81.9642C111.08 85.6256 106.892 87.4359 103.951 84.7402L82.1057 64.7122C80.3444 63.0975 77.8128 62.9923 76.4513 64.4773L67.1134 74.6629C64.9921 76.9767 60.6254 75.2434 59.9666 71.8261Z" fill="#FAAA44"/>
<path d="M59.9666 71.8261L50.9412 25.0092C50.2354 21.3478 54.4236 19.5376 57.3639 22.2332L79.2097 42.2612C80.971 43.876 83.5026 43.9811 84.8641 42.4961L94.202 32.3106C96.3233 29.9968 100.69 31.73 101.349 35.1473L110.374 81.9642C111.08 85.6256 106.892 87.4359 103.951 84.7402L82.1057 64.7122C80.3444 63.0975 77.8128 62.9923 76.4513 64.4773L67.1134 74.6629C64.9921 76.9767 60.6254 75.2434 59.9666 71.8261Z" stroke="#FAAA44" stroke-width="1.5" stroke-linecap="round" stroke-linejoin="round"/>
</svg>
