<svg width="366" height="57" viewBox="0 0 366 57" fill="none" xmlns="http://www.w3.org/2000/svg">
<path opacity="0.4" d="M-33.1299 144.022L-29.4736 -39.8271C-29.1877 -54.2057 -11.9331 -57.6609 -3.01348 -45.1258L63.2564 48.0054C68.5994 55.5142 78.0632 57.9493 84.3942 53.4443L127.816 22.5462C137.68 15.5272 152.755 25.5808 152.488 39.0005L148.831 222.85C148.545 237.228 131.291 240.683 122.371 228.148L56.1014 135.017C50.7583 127.508 41.2946 125.073 34.9636 129.578L-8.45851 160.476C-18.3226 167.495 -33.3968 157.442 -33.1299 144.022Z" fill="#FAAA44"/>
<path d="M-33.1299 144.022L-29.4736 -39.8271C-29.1877 -54.2057 -11.9331 -57.6609 -3.01347 -45.1258L63.2564 48.0054C68.5995 55.5142 78.0632 57.9493 84.3942 53.4443L127.816 22.5462C137.68 15.5272 152.755 25.5808 152.488 39.0005L148.831 222.85C148.545 237.228 131.291 240.683 122.371 228.148L56.1014 135.017C50.7583 127.508 41.2946 125.073 34.9636 129.578L-8.45851 160.476C-18.3226 167.495 -33.3968 157.442 -33.1299 144.022Z" stroke="#FAAA44" stroke-width="1.5" stroke-linecap="round" stroke-linejoin="round"/>
</svg>
