<svg width="131" height="46" viewBox="0 0 131 46" fill="none" xmlns="http://www.w3.org/2000/svg">
<path d="M44.206 8.97949C44.8912 8.12732 44.3151 6.84788 43.2292 6.81427L42.9755 6.80707C43.2197 7.52001 43.1059 8.30016 42.627 8.89547L40.4765 11.5696C40.3793 11.6896 40.3461 11.8505 40.3911 12.0017L41.3466 15.3119C41.579 16.1137 41.3466 16.9635 40.7373 17.53C40.6994 17.566 40.652 17.5852 40.6116 17.6188L41.0384 17.7868C42.0508 18.1853 43.0751 17.2323 42.7692 16.1761L41.8137 12.8659C41.6928 12.4458 41.7829 11.9945 42.0556 11.656L44.206 8.98189V8.97949Z" fill="#002A3A"/>
<path d="M34.8934 16.7633L32.29 18.5613C32.7121 18.8949 33.3214 18.979 33.8335 18.6261L36.1381 17.0346L35.3225 16.7153C35.1779 16.6577 35.0166 16.6793 34.891 16.7657L34.8934 16.7633Z" fill="#002A3A"/>
<path d="M37.6156 5.23205L38.2178 5.25126L36.9161 3.20605C36.6293 2.75717 36.1574 2.56993 35.7046 2.60834L37.2386 5.01601C37.3216 5.14803 37.4638 5.22725 37.6156 5.23205Z" fill="#002A3A"/>
<path d="M49.9636 23.0931L48.0171 24.0245C48.266 24.2957 48.6691 24.4181 49.0508 24.2357L50.7745 23.4123L50.2576 23.1075C50.1675 23.0547 50.0561 23.0499 49.9636 23.0931Z" fill="#002A3A"/>
<path d="M56.642 17.2873L56.4713 17.2537C56.5614 17.7626 56.4002 18.2763 56.0161 18.6243L54.2805 20.1942C54.2023 20.2663 54.1644 20.3719 54.1762 20.4751L54.4702 22.8108C54.5413 23.3773 54.2924 23.927 53.8229 24.2438C53.7945 24.263 53.7589 24.2702 53.7305 24.2894L54.0008 24.4479C54.6433 24.8247 55.4328 24.2942 55.3403 23.5501L55.0464 21.212C55.0084 20.9168 55.1175 20.6191 55.338 20.4223L57.0735 18.8524C57.626 18.3507 57.3723 17.4265 56.6444 17.2849L56.642 17.2873Z" fill="#002A3A"/>
<path d="M53.0253 15.6076L53.4284 15.6844L52.7669 14.1625C52.6223 13.8288 52.3235 13.6512 52.0129 13.6272L52.793 15.4203C52.8357 15.5164 52.921 15.586 53.0253 15.6076Z" fill="#002A3A"/>
<path d="M62.5132 10.95L62.7456 11.0172L62.4397 10.0954C62.3733 9.89376 62.2074 9.77614 62.0295 9.74493L62.3899 10.8299C62.4089 10.89 62.4563 10.9332 62.5156 10.95H62.5132Z" fill="#002A3A"/>
<path d="M64.5352 12.1215L64.438 12.0927C64.4641 12.3927 64.3432 12.6856 64.099 12.868L63.0036 13.689C62.9538 13.725 62.9254 13.785 62.9277 13.8474L62.9752 15.2253C62.987 15.5589 62.8139 15.8662 62.5223 16.0246C62.5033 16.0342 62.4844 16.039 62.4678 16.0462L62.6148 16.1518C62.9704 16.4063 63.4588 16.1398 63.4422 15.7006L63.3948 14.3227C63.3877 14.1475 63.4683 13.9818 63.6058 13.8786L64.7012 13.0576C65.0497 12.796 64.9502 12.2415 64.5329 12.1215H64.5352Z" fill="#002A3A"/>
<path d="M60.3357 15.1469L59.1526 15.5838C59.283 15.7542 59.5106 15.8479 59.7453 15.7614L60.7933 15.375L60.5088 15.1709C60.459 15.1349 60.395 15.1253 60.3381 15.1469H60.3357Z" fill="#002A3A"/>
<path d="M40.9971 6.1962L37.5924 6.09297C37.1609 6.08097 36.765 5.85292 36.5302 5.48565L34.6833 2.58829C34.0953 1.66411 32.713 1.82494 32.3479 2.85954L31.2003 6.10738C31.0557 6.51786 30.719 6.82992 30.3017 6.94274L27.0085 7.82611C25.9581 8.10696 25.6831 9.48723 26.5414 10.1594L29.2348 12.2694C29.5762 12.5358 29.7659 12.9559 29.7422 13.3928L29.5549 16.8351C29.4956 17.9321 30.7048 18.6258 31.6034 18.0041L34.4177 16.0621C34.7734 15.8149 35.2262 15.7645 35.6293 15.9205L38.8064 17.1663C39.8188 17.5624 40.843 16.6118 40.5372 15.5556L39.5817 12.2454C39.4607 11.8253 39.5508 11.374 39.8235 11.0355L41.974 8.36142C42.6592 7.50925 42.083 6.2298 40.9971 6.1962Z" fill="#FFAE3B"/>
<path d="M55.2034 16.6261L52.9178 16.1869C52.6286 16.1316 52.3844 15.9348 52.2658 15.6612L51.3269 13.5055C51.0282 12.819 50.0798 12.7758 49.7218 13.4359L48.6027 15.5027C48.4604 15.7644 48.202 15.9396 47.908 15.9684L45.5916 16.2061C44.8542 16.2829 44.5199 17.1831 45.0297 17.7304L46.6253 19.4467C46.8268 19.6651 46.9098 19.9676 46.8482 20.2605L46.355 22.5625C46.1985 23.297 46.9407 23.8948 47.6116 23.5755L49.717 22.5697C49.985 22.4425 50.2956 22.4569 50.5493 22.6057L52.5598 23.7915C53.2024 24.1708 53.9919 23.6403 53.8994 22.8938L53.6054 20.5557C53.5675 20.2605 53.6765 19.9652 53.897 19.766L55.6326 18.1961C56.185 17.6944 55.9313 16.7702 55.2034 16.6285V16.6261Z" fill="#FFAE3B"/>
<path d="M63.7318 11.6566L62.4207 11.2773C62.2547 11.2293 62.1219 11.102 62.0674 10.9364L61.6335 9.62815C61.496 9.21047 60.9436 9.13605 60.7017 9.50093L59.9406 10.646C59.8434 10.79 59.6822 10.8788 59.5115 10.8812L58.1482 10.8956C57.7143 10.9004 57.4725 11.4069 57.7404 11.7526L58.5797 12.84C58.6864 12.9768 58.7196 13.1592 58.6674 13.3273L58.2596 14.6427C58.1292 15.0628 58.5323 15.4517 58.9401 15.3005L60.2204 14.8276C60.3816 14.7676 60.5642 14.7916 60.7041 14.8924L61.8137 15.6917C62.167 15.9462 62.6578 15.6797 62.6412 15.2404L62.5938 13.8626C62.5866 13.6873 62.6673 13.5217 62.8048 13.4161L63.9001 12.5951C64.2487 12.3335 64.1491 11.779 63.7318 11.659V11.6566Z" fill="#FFAE3B"/>
<path d="M38.9287 37.0903C39.0994 37.0663 39.18 37.0207 39.199 36.855C39.0994 36.9199 39.007 36.9991 38.9287 37.0903Z" fill="#002A3A"/>
<path d="M100.098 37.0903C100.269 37.0663 100.35 37.0207 100.369 36.855C100.269 36.9199 100.177 36.9991 100.098 37.0903Z" fill="#002A3A"/>
<path d="M38.7471 37.1159C38.823 37.1087 38.8751 37.1015 38.9297 37.0943C39.0103 37.003 39.1004 36.9238 39.2 36.859C39.2095 36.7846 39.2095 36.6862 39.2 36.5493C39.2047 36.0477 39.162 35.9108 39.1478 35.8772C39.0814 35.7716 38.8989 35.714 38.6902 35.714C38.5195 35.714 38.3298 35.7524 38.171 35.8364C37.9505 35.9516 37.7774 36.3885 37.877 36.7966C37.9007 36.8926 37.9718 37.1807 38.7424 37.1159H38.7471Z" fill="#002A3A"/>
<path d="M44.2771 39.3195C44.187 39.7731 44.0162 40.2988 43.4188 40.7597C42.4893 41.4775 41.1474 41.4103 40.1516 40.6781C39.3478 41.1246 38.4753 41.3503 37.5909 41.3527C37.1405 41.3527 36.69 41.2926 36.2395 41.175C37.4511 42.2024 39.7035 42.8121 41.7615 41.3238C42.5012 42.2168 43.6914 42.3584 44.4169 41.7991C44.7465 41.5447 44.8769 41.2782 44.9575 40.8726C45.159 39.8548 45.1946 36.8902 45.1045 35.0586C44.8722 34.2713 44.6398 33.4959 44.4075 32.7302C44.5355 34.4657 44.5284 38.0592 44.2794 39.3195H44.2771Z" fill="#002A3A"/>
<path d="M51.8155 39.7566C51.5097 40.1431 50.6964 41.1729 49.2288 41.1729C49.0937 41.1729 48.9728 41.1537 48.8447 41.1441C49.0486 41.5114 49.3972 41.7562 49.6746 41.8642C50.016 41.9987 50.4001 42.0347 50.7415 42.0347C51.716 42.0347 52.2945 41.4106 52.6643 40.9425C53.3069 40.1287 53.9589 38.8661 54.4947 37.4906C54.2553 36.8209 54.1059 36.0935 54.0656 35.3206C53.4491 37.0801 52.6217 38.7388 51.8179 39.7566H51.8155Z" fill="#002A3A"/>
<path d="M49.6317 33.3525C49.6981 33.0501 49.736 32.726 49.755 32.3971C49.6625 31.9507 49.5748 31.5378 49.4871 31.1825C49.3922 30.7864 49.2263 30.4984 49.0271 30.2775C49.1599 30.9089 49.2926 31.6026 49.4254 32.2915C49.4918 32.6396 49.5606 33.0021 49.6317 33.3525Z" fill="#002A3A"/>
<path d="M33.4242 31.8055C33.1397 32.1368 32.8102 32.4153 32.464 32.5857C31.582 33.0226 30.6455 32.8594 29.9745 32.168C29.9745 32.1824 29.9745 32.1944 29.9721 32.2112C29.8986 33.9276 29.9294 36.5585 29.984 38.45C30.0124 39.451 29.7919 40.1856 29.3082 40.6993C28.8672 41.1674 28.2247 41.4146 27.4067 41.4434C27.6699 41.8899 28.1251 42.3244 28.8246 42.3124C30.2969 42.2884 30.681 41.4458 30.6455 40.1976C30.5838 38.0588 30.5649 35.5407 30.6336 33.8963C30.6455 33.5939 30.7 33.2674 30.9181 33.0394C31.0628 32.8881 31.5251 32.6841 31.8025 32.965C31.8689 33.0346 31.9329 33.1066 31.9922 33.181C32.7556 34.1148 33.8249 33.6443 34.4343 32.8065C34.311 32.7441 34.1877 32.6769 34.0739 32.5857C33.7941 32.3673 33.5783 32.1008 33.4242 31.8055Z" fill="#002A3A"/>
<path d="M60.8991 33.3972C60.5909 33.0251 60.3372 32.6002 60.2186 32.1465C59.9649 32.269 59.7373 32.4442 59.5453 32.6674C59.0331 33.2628 58.7937 34.1413 58.8909 35.0799C58.9478 35.6272 59.2086 36.1001 59.5453 36.3378C59.5619 35.1255 60.0455 34.0405 60.8967 33.3972H60.8991Z" fill="#002A3A"/>
<path d="M65.3584 31.0013C65.7283 31.4742 65.9606 31.9927 66.0507 32.2112C66.0673 32.252 66.0744 32.3 66.091 32.3408C66.3518 31.9903 66.3684 31.4646 66.2475 31.1309C66.1456 30.8525 65.9843 30.6389 65.7638 30.4732C65.7164 30.4372 65.6595 30.4012 65.5979 30.3628C65.5528 30.5692 65.4912 30.7685 65.3916 30.9461C65.3821 30.9653 65.3703 30.9845 65.3584 31.0013Z" fill="#002A3A"/>
<path d="M66.0584 37.773C66.2599 37.1776 66.663 36.7096 67.1751 36.4143C67.1703 35.6702 67.0542 34.926 66.7815 34.2611C66.6962 34.0546 66.5658 33.793 66.4045 33.5433C66.5752 34.5995 66.5326 35.7734 66.2386 36.94C65.615 39.4029 63.41 41.196 60.7522 41.3977C60.5506 41.4145 60.3515 41.4217 60.1571 41.4217C59.5359 41.4217 58.9455 41.3425 58.3931 41.1912C59.3604 41.969 60.6455 42.3819 62.2008 42.2618C63.7894 42.1418 65.2499 41.3425 66.1532 40.087C65.8165 39.4125 65.7739 38.6179 66.0607 37.773H66.0584Z" fill="#002A3A"/>
<path d="M21.9081 29.5576C22.2258 29.7665 22.5293 29.9921 22.8186 30.237C22.9087 30.3138 22.9869 30.3978 23.0699 30.4794C23.7029 30.0593 24.253 29.5888 24.7082 29.0655C24.9098 28.4198 25.2844 28.0357 25.5547 27.8293C26.1925 26.5906 26.3869 25.136 26.0099 23.4676C25.8842 22.9083 25.6614 22.3922 25.3816 21.9097C25.9577 25.0495 24.7462 27.7309 21.9058 29.56L21.9081 29.5576Z" fill="#002A3A"/>
<path d="M14.5959 26.2415C14.7856 25.3629 14.5177 24.7436 13.9463 24.4411C13.9344 24.5299 13.9344 24.6091 13.9155 24.7028C13.6902 25.7542 13.631 26.6447 13.6096 27.4393C13.8799 27.4369 14.1431 27.4225 14.4015 27.4009C14.4489 27.0336 14.5106 26.6495 14.5983 26.2391L14.5959 26.2415Z" fill="#002A3A"/>
<path d="M8.10683 24.1429C7.57099 24.6134 6.9498 24.8439 6.32861 24.8367C6.41871 24.9543 6.51592 25.0695 6.62735 25.1727C7.07309 25.5856 7.58522 25.756 8.09023 25.684C8.11394 24.9591 8.22538 24.3638 8.39135 23.8837C8.29888 23.9725 8.20404 24.0589 8.10683 24.1453V24.1429Z" fill="#002A3A"/>
<path d="M24.61 36.8419C24.2448 37.9269 23.5881 38.9135 22.6895 39.6913C21.0891 41.0763 19.1473 41.9141 16.7502 42.2478C15.5648 42.4134 14.3556 42.495 13.1298 42.495C11.4464 42.495 9.72982 42.339 7.99665 42.0293C7.88285 42.0101 7.76193 41.9741 7.64575 41.9453C7.9113 42.2142 8.25509 42.4422 8.68186 42.6126C8.99483 42.7399 9.32439 42.8431 9.65632 42.9031C12.4754 43.4096 15.3134 43.5128 18.1444 43.1167C20.1692 42.8335 22.0588 42.1349 23.6473 40.7595C24.131 40.3418 24.5246 39.8617 24.8281 39.348C24.8186 39.3048 24.802 39.2592 24.7949 39.2184C24.7238 38.8463 24.6597 37.9533 24.61 36.8419Z" fill="#002A3A"/>
<path d="M18.881 21.8997C18.4826 21.5421 17.9278 21.2516 17.1786 21.0164C14.9997 20.325 12.873 20.5555 11.0046 21.6501C11.3674 21.6117 11.7515 21.6333 12.1522 21.7125C12.5126 21.7845 12.8232 21.9261 13.0911 22.1182C14.8978 21.3548 16.8751 21.278 18.881 21.8973V21.8997Z" fill="#002A3A"/>
<path d="M14.164 33.2433C15.3234 33.1377 16.8147 32.9841 18.2302 33.3345C18.0927 33.1905 17.9409 33.0561 17.7583 32.9457C16.4662 32.1703 14.8776 32.1967 13.4906 32.3119C13.4717 33.5602 13.4622 35.3245 13.5689 36.7528C13.7538 36.7672 13.953 36.7768 14.1569 36.7864C14.1284 35.4518 14.1521 34.1123 14.1663 33.2433H14.164Z" fill="#002A3A"/>
<path d="M105.446 39.3195C105.356 39.7731 105.183 40.2988 104.588 40.7597C103.659 41.4799 102.317 41.4127 101.321 40.6781C100.517 41.1246 99.6447 41.3503 98.7604 41.3527C98.3099 41.3527 97.857 41.2926 97.4089 41.175C98.6205 42.2024 100.875 42.8121 102.931 41.3238C103.671 42.2168 104.861 42.3584 105.586 41.7991C105.916 41.5447 106.046 41.2782 106.127 40.8726C106.328 39.8548 106.364 36.8926 106.276 35.0586C106.044 34.2713 105.812 33.4959 105.579 32.7302C105.705 34.4657 105.7 38.0592 105.451 39.3195H105.446Z" fill="#002A3A"/>
<path d="M99.9143 37.1159C99.9902 37.1087 100.042 37.1015 100.097 37.0943C100.177 37.003 100.268 36.9238 100.367 36.859C100.377 36.7846 100.377 36.6862 100.367 36.5493C100.372 36.0477 100.329 35.9084 100.315 35.8772C100.249 35.7716 100.066 35.714 99.8574 35.714C99.6867 35.714 99.497 35.7524 99.3405 35.8364C99.12 35.9516 98.947 36.3885 99.0465 36.7966C99.0702 36.8926 99.1414 37.1807 99.9119 37.1159H99.9143Z" fill="#002A3A"/>
<path d="M112.981 39.7566C112.675 40.1431 111.862 41.1729 110.394 41.1729C110.259 41.1729 110.138 41.1537 110.01 41.1441C110.214 41.5114 110.562 41.7562 110.84 41.8642C111.181 41.9987 111.565 42.0347 111.907 42.0347C112.881 42.0347 113.46 41.4106 113.83 40.9425C114.472 40.1287 115.124 38.8661 115.66 37.4906C115.421 36.8209 115.271 36.0935 115.231 35.3206C114.614 37.0801 113.787 38.7388 112.983 39.7566H112.981Z" fill="#002A3A"/>
<path d="M110.8 33.3501C110.866 33.0477 110.904 32.7236 110.923 32.3947C110.833 31.9507 110.743 31.5354 110.658 31.1825C110.561 30.7864 110.395 30.4984 110.198 30.2775C110.331 30.9089 110.463 31.605 110.596 32.2915C110.662 32.6396 110.731 32.9997 110.8 33.3525V33.3501Z" fill="#002A3A"/>
<path d="M94.5912 31.8055C94.3067 32.1368 93.9771 32.4153 93.631 32.5857C92.749 33.0226 91.8125 32.8594 91.1415 32.168C91.1415 32.1824 91.1415 32.1944 91.1391 32.2112C91.0656 33.9324 91.0964 36.5609 91.151 38.45C91.1794 39.451 90.9589 40.1856 90.4752 40.6993C90.0342 41.1674 89.3917 41.4146 88.5737 41.4434C88.8369 41.8899 89.2921 42.3244 89.9916 42.3124C91.4639 42.2884 91.848 41.4458 91.8125 40.1976C91.7508 38.0588 91.7318 35.5407 91.8006 33.8963C91.8125 33.5939 91.867 33.2674 92.0851 33.0394C92.2297 32.8881 92.6921 32.6841 92.9695 32.965C93.0382 33.0346 93.0999 33.1066 93.1592 33.181C93.9226 34.1148 94.9919 33.6443 95.6013 32.8065C95.478 32.7441 95.3547 32.6769 95.2409 32.5857C94.9611 32.3673 94.7453 32.1008 94.5912 31.8055Z" fill="#002A3A"/>
<path d="M126.526 31.0013C126.896 31.4766 127.129 31.9927 127.219 32.2112C127.235 32.252 127.242 32.3 127.257 32.3408C127.517 31.9903 127.534 31.4646 127.413 31.1309C127.311 30.8525 127.15 30.6389 126.929 30.4732C126.882 30.4372 126.825 30.4012 126.763 30.3628C126.718 30.5692 126.657 30.7709 126.557 30.9461C126.548 30.9653 126.536 30.9845 126.524 31.0013H126.526Z" fill="#002A3A"/>
<path d="M122.066 33.3972C121.755 33.0251 121.504 32.6002 121.385 32.1465C121.132 32.269 120.906 32.4442 120.714 32.665C120.202 33.2604 119.963 34.1389 120.06 35.0775C120.117 35.6248 120.378 36.0977 120.714 36.3354C120.731 35.1231 121.215 34.0381 122.066 33.3972Z" fill="#002A3A"/>
<path d="M127.947 34.2677C127.862 34.0612 127.731 33.7996 127.57 33.5499C127.741 34.6061 127.698 35.78 127.404 36.9466C126.78 39.4095 124.575 41.2026 121.918 41.4043C121.716 41.4211 121.517 41.4283 121.322 41.4283C120.701 41.4283 120.111 41.3491 119.558 41.1978C120.526 41.9756 121.811 42.3885 123.366 42.2684C125.564 42.1004 127.537 40.6505 128.094 38.4541C128.423 37.153 128.48 35.5591 127.949 34.2701L127.947 34.2677Z" fill="#002A3A"/>
<path d="M75.3337 33.2433C76.4931 33.1377 77.9844 32.9841 79.3998 33.3345C79.2647 33.1905 79.1106 33.0561 78.928 32.9457C77.6359 32.1703 76.0473 32.1967 74.6603 32.3119C74.6413 33.5602 74.6319 35.3245 74.7385 36.7528C74.9235 36.7672 75.1226 36.7768 75.3242 36.7864C75.2957 35.4518 75.3194 34.1123 75.3337 33.2457V33.2433Z" fill="#002A3A"/>
<path d="M80.0465 21.8997C79.6482 21.5421 79.0934 21.2516 78.3441 21.0164C76.1652 20.325 74.0385 20.5555 72.1702 21.6501C72.5306 21.6117 72.917 21.6333 73.3177 21.7125C73.6781 21.7845 73.9887 21.9261 74.2566 22.1182C76.0633 21.3548 78.0407 21.278 80.0441 21.8973L80.0465 21.8997Z" fill="#002A3A"/>
<path d="M75.7639 26.2415C75.9536 25.3629 75.6857 24.7436 75.1143 24.4411C75.1024 24.5299 75.1048 24.6091 75.0834 24.7028C74.8582 25.7542 74.8013 26.6447 74.7776 27.4393C75.0479 27.4393 75.3111 27.4297 75.5695 27.4105C75.6169 27.0408 75.6786 26.6519 75.7663 26.2391L75.7639 26.2415Z" fill="#002A3A"/>
<path d="M85.7796 36.8419C85.4145 37.9269 84.7578 38.9135 83.8592 39.6913C82.2588 41.0763 80.3169 41.9141 77.9199 42.2478C76.7344 42.4134 75.5252 42.495 74.2995 42.495C72.6161 42.495 70.8995 42.339 69.1663 42.0293C69.0525 42.0101 68.934 41.9765 68.8154 41.9453C69.081 42.2142 69.4248 42.4422 69.8515 42.6126C70.1645 42.7399 70.4941 42.8431 70.826 42.9031C73.6451 43.4096 76.4831 43.5128 79.314 43.1167C81.3388 42.8335 83.2285 42.1349 84.817 40.7595C85.3007 40.3418 85.6943 39.8617 85.9978 39.348C85.9883 39.3048 85.9717 39.2592 85.9646 39.2184C85.8934 38.8463 85.8294 37.9533 85.7796 36.8419Z" fill="#002A3A"/>
<path d="M83.0763 29.5576C83.394 29.7665 83.6999 29.9921 83.9868 30.237C84.0769 30.3138 84.1551 30.3978 84.2381 30.4794C84.8712 30.0593 85.4212 29.5888 85.8764 29.0655C86.078 28.4198 86.4526 28.0333 86.7229 27.8293C87.3607 26.5906 87.5551 25.136 87.1781 23.4676C87.0524 22.9083 86.8296 22.3922 86.5498 21.9097C87.1259 25.0519 85.9168 27.7309 83.074 29.56L83.0763 29.5576Z" fill="#002A3A"/>
<path d="M69.2733 24.1429C68.7375 24.6134 68.1163 24.8439 67.4951 24.8367C67.5852 24.9543 67.6824 25.0671 67.7939 25.1727C68.2396 25.5856 68.7517 25.756 69.2567 25.684C69.2805 24.9591 69.3919 24.3638 69.5579 23.8837C69.4654 23.9725 69.3705 24.0589 69.2733 24.1453V24.1429Z" fill="#002A3A"/>
<path d="M40.3277 28.1284C38.3218 27.5523 35.4127 28.4741 34.5591 29.3815C34.3647 29.5879 34.1703 29.9048 34.0826 30.1928C33.881 30.853 34.0707 31.4987 34.59 31.902C35.0713 32.2764 35.7494 32.2932 36.2425 31.8396C37.1316 31.0234 38.0373 30.9154 38.4949 30.9058C39.6022 30.8818 39.9791 31.5539 39.8511 32.8742C38.668 32.2884 36.8092 32.4061 35.6237 33.1142C32.9825 34.6913 33.4875 37.4639 33.9759 38.5225C34.6421 39.9675 37.6129 41.5062 40.2494 39.5979C40.9892 40.4932 42.1794 40.6325 42.9049 40.0732C43.2345 39.8187 43.3649 39.5523 43.4455 39.1466C43.6873 37.9199 43.6921 33.8608 43.5237 32.3701C43.2914 30.3177 42.2813 28.6901 40.33 28.1284H40.3277ZM38.8221 37.9656C37.9212 38.0448 37.2407 37.7519 37.0581 36.9958C36.8756 36.2492 37.1696 35.3922 37.7836 35.0682C38.438 34.7225 39.4552 34.7489 39.8819 35.4355C40.0479 35.7019 40.055 36.194 40.0503 36.4989C40.1048 37.5383 39.652 37.8935 38.8221 37.968V37.9656Z" fill="#54C8E8"/>
<path d="M51.5523 28.1762C50.1013 28.6803 50.1843 29.9285 50.3313 30.3294C51.1896 32.689 49.9543 35.4472 49.3711 35.9705C48.9941 34.9383 48.4369 31.352 47.9769 29.458C47.6426 28.0801 46.5093 27.8761 45.8265 28.0465C45.1863 28.205 44.1004 28.9083 44.5675 30.3726C45.4779 33.2171 46.2485 35.9849 47.2182 39.1775C47.3723 39.6864 47.8276 40.0057 48.1619 40.1377C48.5033 40.2697 48.8874 40.3081 49.2288 40.3081C50.2033 40.3081 50.7818 39.684 51.1516 39.2159C52.9939 36.8851 54.9191 30.8935 53.9328 29.0283C53.6767 28.5434 52.8967 27.7105 51.5523 28.1786V28.1762Z" fill="#54C8E8"/>
<path d="M31.4246 28.0893C30.59 28.1253 29.376 28.7591 29.1698 29.2896C29.1579 29.0375 29.0299 28.7759 28.8758 28.639C28.2166 28.0461 26.8273 27.9621 26.1018 28.4782C25.8006 28.6919 25.4734 29.0999 25.426 29.8321C25.2695 32.2446 25.4355 38.0177 25.6323 39.0571C25.7271 39.566 26.2369 40.6054 27.3133 40.5886C28.7857 40.5646 29.1698 39.722 29.1342 38.4738C29.0726 36.335 29.0536 33.8169 29.1223 32.1725C29.1342 31.8701 29.1887 31.5436 29.4069 31.3156C29.5515 31.1643 30.0138 30.9603 30.2912 31.2412C30.3576 31.3108 30.4216 31.3828 30.4809 31.4572C31.6948 32.9407 33.6793 30.8787 33.364 29.436C33.1814 28.6006 32.3753 28.0485 31.4222 28.0893H31.4246Z" fill="#54C8E8"/>
<path d="M64.0336 30.9653C64.8042 30.8212 64.918 29.9043 64.7378 29.4098C64.6359 29.1313 64.4746 28.9177 64.2541 28.752C63.8155 28.4184 62.668 27.9335 61.5275 27.9431C60.003 27.9575 58.4761 28.2863 57.0938 29.4434C56.1312 30.2499 55.069 31.6854 54.9102 34.3619C54.6921 38.025 56.9184 40.8288 60.6882 40.5407C62.8861 40.3727 64.8587 38.9228 65.4159 36.7264C65.7455 35.4253 65.8024 33.8314 65.2713 32.5424C65.0626 32.0335 64.5861 31.2053 64.036 30.9653H64.0336ZM59.6047 37.3073C58.7583 37.0865 58.1537 36.1791 58.0493 35.1685C57.8312 33.0585 59.0167 31.1357 61.0913 31.0733C60.7143 31.9327 61.4825 32.924 62.1084 33.3849C62.5304 33.697 62.694 34.2899 62.7083 34.7268C62.7723 36.7072 61.1624 37.713 59.6047 37.3073Z" fill="#54C8E8"/>
<path d="M24.499 21.7405C23.9395 19.2536 21.6705 17.5013 19.2876 16.6875C17.8153 16.1858 10.3847 14.4503 4.98128 20.0097C3.99733 21.0227 4.13722 22.5422 5.11168 23.4496C5.85379 24.1385 6.78558 24.1626 7.54666 23.4928C7.87859 23.2 8.18445 22.8807 8.49267 22.5614C10.9917 19.9761 14.1782 19.1648 17.4288 20.1946C18.6665 20.5859 20.0203 21.282 20.4067 22.8639C20.7861 24.4218 19.9681 25.6316 18.8656 26.5702C17.1514 28.0345 14.9559 28.433 12.7391 28.2674C12.7628 27.264 12.7557 26.0493 13.0852 24.5226C13.3199 23.4376 12.8623 22.7367 11.9851 22.5566C10.3634 22.2278 8.96923 23.1376 8.9313 25.8549C8.90048 28.0729 8.70606 33.594 9.01191 37.1059C8.30062 37.0195 8.0659 36.9931 7.42811 36.9451C6.65044 36.8874 5.94389 37.3171 5.69257 38.0565C5.2492 39.3575 5.86328 40.3681 7.17205 40.8938C7.48501 41.0211 7.81458 41.1243 8.14651 41.1843C10.9656 41.6908 13.8036 41.794 16.6345 41.3979C18.6593 41.1147 20.549 40.4161 22.1375 39.0407C24.6768 36.8418 24.7669 32.9963 22.275 30.8935C21.6491 30.3654 20.9283 29.9165 20.1436 29.5756C20.3214 29.4772 20.5087 29.3716 20.6984 29.2708C23.6644 27.6888 25.2696 25.1612 24.5014 21.7405H24.499ZM18.6404 36.513C17.8295 37.2115 16.8432 37.4972 15.8284 37.6196C15.0199 37.7156 13.4456 37.6364 12.7865 37.5404C12.5731 35.6776 12.63 32.9579 12.6537 31.5248C14.228 31.3808 16.414 31.1431 18.1923 32.2089C19.8306 33.1907 20.1009 35.2575 18.6427 36.513H18.6404Z" fill="#54C8E8"/>
<path d="M101.493 28.1284C99.4874 27.5523 96.5782 28.4741 95.7247 29.3815C95.5302 29.5879 95.3358 29.9048 95.2481 30.1928C95.0466 30.853 95.2363 31.4987 95.7555 31.902C96.2368 32.2764 96.9149 32.2932 97.408 31.8396C98.2972 31.0234 99.2029 30.9154 99.6605 30.9058C100.768 30.8818 101.145 31.5539 101.017 32.8742C99.8335 32.2884 97.9747 32.4061 96.7892 33.1142C94.148 34.6913 94.653 37.4639 95.1414 38.5225C95.8077 39.9675 98.7785 41.5062 101.415 39.5979C102.155 40.4932 103.345 40.6325 104.07 40.0732C104.4 39.8187 104.53 39.5523 104.611 39.1466C104.853 37.9199 104.858 33.8608 104.689 32.3701C104.457 30.3177 103.447 28.6901 101.496 28.1284H101.493ZM99.9876 37.9656C99.0867 38.0448 98.4062 37.7519 98.2237 36.9958C98.0411 36.2492 98.3351 35.3922 98.9492 35.0682C99.6036 34.7225 100.621 34.7489 101.047 35.4355C101.213 35.7019 101.221 36.194 101.216 36.4989C101.27 37.5383 100.817 37.8935 99.9876 37.968V37.9656Z" fill="#54C8E8"/>
<path d="M112.72 28.1762C111.269 28.6803 111.352 29.9285 111.499 30.3294C112.358 32.689 111.122 35.4472 110.539 35.9705C110.162 34.9383 109.605 31.352 109.145 29.458C108.811 28.0801 107.677 27.8761 106.995 28.0465C106.354 28.205 105.269 28.9083 105.736 30.3726C106.646 33.2171 107.417 35.9849 108.386 39.1775C108.54 39.6864 108.996 40.0057 109.33 40.1377C109.671 40.2697 110.055 40.3081 110.397 40.3081C111.371 40.3081 111.95 39.684 112.32 39.2159C114.162 36.8851 116.087 30.8935 115.101 29.0283C114.845 28.5434 114.065 27.7105 112.72 28.1786V28.1762Z" fill="#54C8E8"/>
<path d="M92.5901 28.0893C91.7555 28.1253 90.5416 28.7591 90.3353 29.2896C90.3234 29.0375 90.1954 28.7759 90.0413 28.639C89.3822 28.0461 87.9928 27.9621 87.2673 28.4782C86.9662 28.6919 86.639 29.0999 86.5916 29.8321C86.4351 32.2446 86.601 38.0177 86.7978 39.0571C86.8927 39.566 87.4024 40.6054 88.4788 40.5886C89.9512 40.5646 90.3353 39.722 90.2997 38.4738C90.2381 36.335 90.2191 33.8169 90.2879 32.1725C90.2997 31.8701 90.3543 31.5436 90.5724 31.3156C90.717 31.1643 91.1794 30.9603 91.4568 31.2412C91.5231 31.3108 91.5872 31.3828 91.6464 31.4572C92.8604 32.9407 94.8449 30.8787 94.5295 29.436C94.3469 28.6006 93.5408 28.0485 92.5877 28.0893H92.5901Z" fill="#54C8E8"/>
<path d="M126.434 32.5424C126.226 32.0335 125.749 31.2053 125.199 30.9653C125.97 30.8212 126.083 29.9043 125.903 29.4098C125.801 29.1313 125.64 28.9177 125.42 28.752C124.981 28.4184 123.833 27.9335 122.693 27.9431C121.168 27.9575 119.642 28.2863 118.259 29.4434C117.297 30.2499 116.234 31.6854 116.076 34.3619C115.857 38.025 118.084 40.8288 121.854 40.5407C124.051 40.3727 126.024 38.9228 126.581 36.7264C126.911 35.4253 126.968 33.8314 126.437 32.5424H126.434ZM120.772 37.3097C119.926 37.0889 119.321 36.1815 119.217 35.1709C118.999 33.0609 120.184 31.1381 122.259 31.0757C121.882 31.9351 122.65 32.9264 123.276 33.3873C123.698 33.6994 123.862 34.2923 123.876 34.7292C123.94 36.7096 122.33 37.7154 120.772 37.3097Z" fill="#54C8E8"/>
<path d="M85.6687 21.7405C85.1091 19.2536 82.8401 17.5013 80.4573 16.6875C78.985 16.1858 71.5544 14.4503 66.151 20.0097C65.167 21.0227 65.3069 22.5422 66.2814 23.4496C67.0235 24.1385 67.9553 24.1626 68.7163 23.4928C69.0483 23.2 69.3541 22.8807 69.6623 22.5614C72.1613 19.9761 75.3479 19.1648 78.5985 20.1946C79.8361 20.5859 81.1899 21.282 81.5764 22.8639C81.9558 24.4218 81.1378 25.6316 80.0353 26.5702C78.3211 28.0345 76.1256 28.433 73.9087 28.2674C73.9324 27.264 73.9253 26.0493 74.2549 24.5226C74.4896 23.4376 74.032 22.7367 73.1548 22.5566C71.533 22.2278 70.1389 23.1376 70.101 25.8549C70.0702 28.0729 69.8757 33.594 70.1816 37.1059C69.4703 37.0195 69.2356 36.9931 68.5978 36.9451C67.8201 36.8874 67.1136 37.3171 66.8622 38.0565C66.4189 39.3575 67.033 40.3681 68.3417 40.8938C68.6547 41.0211 68.9843 41.1243 69.3162 41.1843C72.1353 41.6908 74.9733 41.794 77.8042 41.3979C79.829 41.1147 81.7187 40.4161 83.3072 39.0407C85.8465 36.8418 85.9366 32.9963 83.4447 30.8935C82.8188 30.3654 82.098 29.9165 81.3132 29.5756C81.4911 29.4772 81.6784 29.3716 81.868 29.2708C84.8341 27.6888 86.4392 25.1612 85.671 21.7405H85.6687ZM79.81 36.513C78.9992 37.2115 78.0129 37.4972 76.9981 37.6196C76.1896 37.7156 74.6153 37.6364 73.9561 37.5404C73.7428 35.6776 73.7997 32.9579 73.8234 31.5248C75.3977 31.3808 77.5837 31.1431 79.3619 32.2089C81.0003 33.1907 81.2706 35.2575 79.8124 36.513H79.81Z" fill="#54C8E8"/>
</svg>
